<svg width="57" height="57" viewBox="0 0 57 57" fill="none" xmlns="http://www.w3.org/2000/svg">
    <path d="M20.777 40.79c-.336 0-.672-.128-.93-.383L2.217 22.772a5.257 5.257 0 0 1 0-7.426 5.258 5.258 0 0 1 7.423 0l15.78 15.779a1.313 1.313 0 0 1-1.857 1.856L7.783 17.202a2.634 2.634 0 0 0-3.711 0 2.618 2.618 0 0 0-.77 1.856c0 .703.274 1.362.77 1.858l17.634 17.632a1.313 1.313 0 0 1-.929 2.242z" fill="#000"/>
    <path d="M30.059 27.797c-.336 0-.672-.129-.93-.384L11.499 9.78a2.625 2.625 0 1 0-3.715 3.711l1.856 1.856a1.314 1.314 0 0 1-1.856 1.856l-1.856-1.856a5.214 5.214 0 0 1-1.538-3.712c0-1.401.546-2.72 1.538-3.711 1.982-1.982 5.44-1.987 7.427 0l17.632 17.635a1.313 1.313 0 0 1-.927 2.239z" fill="#000"/>
    <path d="M35.63 22.229c-.337 0-.673-.129-.93-.383L20.777 7.923a2.622 2.622 0 0 0-3.712 0 2.627 2.627 0 0 0 0 3.711 1.313 1.313 0 0 1-1.856 1.856 5.259 5.259 0 0 1 0-7.423 5.258 5.258 0 0 1 7.424 0L36.556 19.99a1.313 1.313 0 0 1-.927 2.239z" fill="#000"/>
    <path d="M34.196 56.467c-.884 0-1.78-.1-2.667-.302L9.427 51.099a5.123 5.123 0 0 1-2.57-1.413 5.221 5.221 0 0 1-1.541-3.711c0-1.402.549-2.72 1.54-3.712a5.12 5.12 0 0 1 2.408-1.37c.026-.01.052-.016.079-.024l11.13-2.67a1.308 1.308 0 0 1 1.582.972 1.316 1.316 0 0 1-.97 1.582L10.03 43.405c-.034.01-.068.02-.105.029a2.489 2.489 0 0 0-1.212.687 2.61 2.61 0 0 0-.772 1.856c0 .701.273 1.36.772 1.856a2.547 2.547 0 0 0 1.268.704l22.136 5.074a9.13 9.13 0 0 0 8.55-2.46l10.741-10.744a9.128 9.128 0 0 0 2.69-6.497c0-2.454-.955-4.759-2.69-6.497L28.206 4.211a2.622 2.622 0 0 0-3.712 0 2.627 2.627 0 0 0 0 3.712 1.314 1.314 0 0 1-1.856 1.855 5.258 5.258 0 0 1 0-7.423 5.258 5.258 0 0 1 7.424 0l23.202 23.202a11.72 11.72 0 0 1 3.46 8.353 11.73 11.73 0 0 1-3.46 8.353L42.523 53.007a11.765 11.765 0 0 1-8.327 3.46z" fill="#000"/>
</svg>
