<svg width="61" height="63" viewBox="0 0 61 63" fill="none" xmlns="http://www.w3.org/2000/svg">
    <path d="m56.661 41.349-5.895-4.193c.99-3.64.984-7.48-.017-11.118l5.915-4.14-4.722-8.17-6.578 3.009a21.072 21.072 0 0 0-9.64-5.545L35.098 4h-9.444l-.627 7.192a21.07 21.07 0 0 0-9.636 5.548l-6.582-3.01L4.09 21.9l5.915 4.141a21.07 21.07 0 0 0-.02 11.115L4.09 41.35l4.72 8.131 6.58-3.012a21.07 21.07 0 0 0 9.637 5.544l.627 7.192h9.444l.628-7.192a21.073 21.073 0 0 0 9.636-5.544l6.581 3.012 4.722-8.128-.003-.003zM36.891.7a1.625 1.625 0 0 1 1.626 1.55l.578 6.614a24.213 24.213 0 0 1 6.64 3.829l6.012-2.805a1.625 1.625 0 0 1 2.152.634L60.415 21.8a1.625 1.625 0 0 1-.526 2.18l-5.441 3.81c.416 2.593.403 5.177.003 7.667l5.438 3.802a1.625 1.625 0 0 1 .526 2.184l-6.516 11.235a1.625 1.625 0 0 1-2.152.634l-6.012-2.805a24.207 24.207 0 0 1-6.64 3.832l-.578 6.614A1.625 1.625 0 0 1 36.89 62.5H23.86a1.625 1.625 0 0 1-1.625-1.547l-.579-6.614a24.222 24.222 0 0 1-6.64-3.832l-6.012 2.805a1.625 1.625 0 0 1-2.154-.63L.336 41.44a1.625 1.625 0 0 1 .526-2.18l5.437-3.807a24.212 24.212 0 0 1 0-7.666L.865 23.98a1.625 1.625 0 0 1-.526-2.178l6.506-11.28A1.625 1.625 0 0 1 9 9.889l6.012 2.805a24.213 24.213 0 0 1 6.64-3.829l.579-6.614a1.625 1.625 0 0 1 1.625-1.55h13.036zM30.376 20.25a11.375 11.375 0 1 1 0 22.75 11.375 11.375 0 0 1 0-22.75zm0 3.25a8.125 8.125 0 1 0 0 16.25 8.125 8.125 0 0 0 0-16.25z" fill="#000"/>
</svg>
